<svg width="120" height="120" viewBox="0 0 120 120" xmlns="http://www.w3.org/2000/svg">
  <defs>
    <linearGradient id="grad1" x1="0%" y1="0%" x2="100%" y2="100%">
      <stop offset="0%" style="stop-color:#42b883;stop-opacity:1" />
      <stop offset="100%" style="stop-color:#369870;stop-opacity:1" />
    </linearGradient>
  </defs>
  
  <!-- Background circle -->
  <circle cx="60" cy="60" r="55" fill="url(#grad1)" stroke="#fff" stroke-width="2"/>
  
  <!-- Brain icon -->
  <g transform="translate(30, 25)">
    <!-- Left hemisphere -->
    <path d="M20 15 Q10 10 5 20 Q0 30 5 40 Q10 50 20 45 Q25 40 25 30 Q25 20 20 15" 
          fill="#fff" opacity="0.9"/>
    
    <!-- Right hemisphere -->
    <path d="M40 15 Q50 10 55 20 Q60 30 55 40 Q50 50 40 45 Q35 40 35 30 Q35 20 40 15" 
          fill="#fff" opacity="0.9"/>
    
    <!-- Connection -->
    <path d="M25 25 Q30 20 35 25 Q30 30 25 25" fill="#fff" opacity="0.7"/>
    
    <!-- Neural pathways -->
    <circle cx="15" cy="25" r="2" fill="#42b883"/>
    <circle cx="45" cy="25" r="2" fill="#42b883"/>
    <circle cx="30" cy="35" r="2" fill="#42b883"/>
    <circle cx="20" cy="40" r="1.5" fill="#42b883"/>
    <circle cx="40" cy="40" r="1.5" fill="#42b883"/>
  </g>
  
  <!-- Adaptive arrows -->
  <g transform="translate(60, 85)">
    <path d="M-15 0 L-5 -5 L-5 -2 L5 -2 L5 2 L-5 2 L-5 5 Z" fill="#fff" opacity="0.8"/>
    <path d="M15 0 L5 5 L5 2 L-5 2 L-5 -2 L5 -2 L5 -5 Z" fill="#fff" opacity="0.8"/>
  </g>
  
  <!-- Text -->
  <text x="60" y="105" text-anchor="middle" font-family="Arial, sans-serif" font-size="12" font-weight="bold" fill="#fff">
    AdaptiveRAG
  </text>
</svg>
